<?xml version="1.0" encoding="UTF-8"?>
<svg width="600px" height="100px" viewBox="0 0 600 100" xmlns="http://www.w3.org/2000/svg" xmlns:xlink="http://www.w3.org/1999/xlink" version="1.1">
 <!-- Generated by Pixelmator Pro 1.5.5 -->
 <defs>
  <path id="&quot;-Unis-pour-Preuilly-&quot;" d="M568.414 36.383 L563.258 36.383 561.828 22.859 561.828 21.664 569.844 21.664 569.844 22.859 Z M578.422 36.383 L573.266 36.383 571.836 22.859 571.836 21.664 579.852 21.664 579.852 22.859 Z M528.523 30.945 L540.148 30.945 532.531 54.664 C531.766 57.055 531.141 58.766 530.656 59.797 530.016 61.156 529.336 62.277 528.617 63.16 527.898 64.043 527.121 64.738 526.285 65.246 525.449 65.754 524.387 66.184 523.098 66.535 521.808 66.887 520.328 67.063 518.656 67.063 516.719 67.063 514.328 66.781 511.484 66.219 L511.484 59.117 C512.563 59.445 513.609 59.609 514.625 59.609 516.047 59.609 517.09 59.328 517.754 58.766 518.418 58.203 518.75 57.5 518.75 56.656 518.75 56.297 518.68 55.914 518.539 55.508 L509.75 30.945 522.313 30.945 525.477 46.344 Z M495.852 19.789 L507.969 19.789 507.969 56 495.852 56 Z M478.953 19.789 L491.07 19.789 491.07 56 478.953 56 Z M474.172 28.156 L462.055 28.156 462.055 19.789 474.172 19.789 Z M462.055 56 L462.055 30.945 474.172 30.945 474.172 56 Z M428.938 30.945 L441.055 30.945 441.055 45.781 C441.055 46.609 441.121 47.219 441.254 47.609 441.387 48 441.641 48.32 442.016 48.57 442.391 48.82 442.805 48.945 443.258 48.945 443.945 48.945 444.5 48.711 444.922 48.242 445.344 47.773 445.555 47.008 445.555 45.945 L445.555 30.945 457.555 30.945 457.555 56 446.211 56 446.211 51.828 C444.68 55.047 441.852 56.656 437.727 56.656 436.336 56.656 435.047 56.453 433.859 56.047 432.672 55.641 431.664 55.024 430.836 54.195 430.32 53.664 429.906 52.992 429.594 52.18 429.156 51.039 428.938 49.867 428.938 48.664 Z M426.031 46.391 L409.367 46.391 C409.461 47.484 410.027 48.406 411.066 49.156 412.105 49.906 413.773 50.281 416.07 50.281 418.68 50.281 421.383 49.781 424.18 48.781 L424.18 55.227 C421.883 55.758 419.859 56.141 418.109 56.375 416.359 56.609 414.633 56.727 412.93 56.727 407.82 56.727 403.965 55.524 401.363 53.117 398.762 50.711 397.461 47.5 397.461 43.484 397.461 40.875 398.012 38.563 399.113 36.547 400.215 34.531 401.914 32.973 404.211 31.871 406.508 30.77 409.156 30.219 412.156 30.219 414.125 30.219 415.988 30.48 417.746 31.004 419.504 31.527 420.926 32.254 422.012 33.184 423.098 34.113 423.918 35.121 424.473 36.207 425.027 37.293 425.437 38.711 425.703 40.461 425.922 41.805 426.031 43.781 426.031 46.391 Z M409.086 41.211 L415.297 41.211 C415.297 39.273 415.023 37.957 414.477 37.262 413.93 36.566 413.211 36.219 412.32 36.219 411.367 36.219 410.59 36.563 409.988 37.25 409.387 37.938 409.086 39.039 409.086 40.555 Z M396.125 30.711 L396.125 40.602 C395.406 40.336 394.586 40.203 393.664 40.203 392.586 40.203 391.551 40.457 390.559 40.965 389.566 41.473 388.781 42.125 388.203 42.922 387.781 43.5 387.469 44.234 387.266 45.125 387.125 45.672 387.055 46.43 387.055 47.398 L387.055 56 374.844 56 374.844 30.945 386.281 30.945 386.281 36.547 C387.281 34.375 388.398 32.832 389.633 31.918 390.867 31.004 392.383 30.547 394.18 30.547 394.742 30.547 395.391 30.602 396.125 30.711 Z M336.734 22.156 L358.578 22.156 C360.938 22.156 362.883 22.469 364.414 23.094 366.414 23.891 368.043 25.203 369.301 27.031 370.559 28.859 371.188 31.195 371.188 34.039 371.188 35.867 370.953 37.414 370.484 38.68 370.016 39.945 369.43 41.035 368.727 41.949 368.023 42.863 367.246 43.613 366.395 44.199 365.543 44.785 364.473 45.258 363.184 45.617 361.894 45.977 360.297 46.156 358.391 46.156 L349.625 46.156 349.625 56 336.734 56 Z M349.297 30.055 L349.297 38.445 352.789 38.445 C354.711 38.445 356.109 38.051 356.984 37.262 357.859 36.473 358.297 35.422 358.297 34.109 358.297 32.813 357.922 31.813 357.172 31.109 356.422 30.406 355.219 30.055 353.563 30.055 Z M316.156 30.711 L316.156 40.602 C315.437 40.336 314.617 40.203 313.695 40.203 312.617 40.203 311.582 40.457 310.59 40.965 309.598 41.473 308.813 42.125 308.234 42.922 307.812 43.5 307.5 44.234 307.297 45.125 307.156 45.672 307.086 46.43 307.086 47.398 L307.086 56 294.875 56 294.875 30.945 306.313 30.945 306.313 36.547 C307.313 34.375 308.43 32.832 309.664 31.918 310.898 31.004 312.414 30.547 314.211 30.547 314.773 30.547 315.422 30.602 316.156 30.711 Z M261.875 30.945 L273.992 30.945 273.992 45.781 C273.992 46.609 274.058 47.219 274.191 47.609 274.324 48 274.578 48.32 274.953 48.57 275.328 48.82 275.742 48.945 276.195 48.945 276.883 48.945 277.437 48.711 277.859 48.242 278.281 47.773 278.492 47.008 278.492 45.945 L278.492 30.945 290.492 30.945 290.492 56 279.148 56 279.148 51.828 C277.617 55.047 274.789 56.656 270.664 56.656 269.273 56.656 267.984 56.453 266.797 56.047 265.609 55.641 264.602 55.024 263.773 54.195 263.258 53.664 262.844 52.992 262.531 52.18 262.094 51.039 261.875 49.867 261.875 48.664 Z M243.102 30.195 C245.914 30.195 248.422 30.492 250.625 31.086 251.625 31.352 252.59 31.781 253.52 32.375 254.449 32.969 255.312 33.773 256.109 34.789 256.906 35.805 257.523 37.031 257.961 38.469 258.398 39.906 258.617 41.547 258.617 43.391 258.617 45.672 258.289 47.652 257.633 49.332 256.976 51.012 255.996 52.395 254.691 53.48 253.387 54.567 251.938 55.336 250.344 55.789 248.203 56.399 245.984 56.703 243.688 56.703 241.219 56.703 239.031 56.449 237.125 55.941 235.219 55.434 233.586 54.621 232.227 53.504 230.867 52.387 229.82 50.992 229.086 49.32 228.351 47.648 227.984 45.656 227.984 43.344 227.984 41.563 228.23 39.906 228.723 38.375 229.215 36.844 229.914 35.567 230.82 34.543 231.727 33.52 232.797 32.68 234.031 32.023 234.859 31.57 235.875 31.195 237.078 30.898 238.938 30.43 240.945 30.195 243.102 30.195 Z M243.195 49.438 C244.086 49.438 244.766 49.094 245.234 48.406 245.703 47.719 245.938 46.024 245.938 43.32 245.938 40.68 245.672 38.953 245.141 38.141 244.766 37.563 244.164 37.273 243.336 37.273 242.492 37.273 241.824 37.633 241.332 38.352 240.84 39.07 240.594 40.688 240.594 43.203 240.594 45.875 240.875 47.641 241.438 48.5 241.844 49.125 242.43 49.438 243.195 49.438 Z M195.453 67.156 L195.453 30.945 206.563 30.945 206.563 35.492 C207.313 33.742 208.336 32.426 209.633 31.543 210.93 30.66 212.578 30.219 214.578 30.219 216.297 30.219 217.887 30.516 219.348 31.109 220.809 31.703 222.023 32.613 222.992 33.84 223.961 35.067 224.68 36.563 225.148 38.328 225.617 40.094 225.852 41.906 225.852 43.766 225.852 46.344 225.441 48.621 224.621 50.598 223.801 52.574 222.551 54.063 220.871 55.063 219.191 56.063 217.219 56.563 214.953 56.563 213.328 56.563 211.93 56.262 210.758 55.66 209.586 55.059 208.523 54.133 207.57 52.883 L207.57 67.156 Z M210.172 38.211 C209.562 38.211 209.023 38.375 208.555 38.703 208.086 39.031 207.738 39.555 207.512 40.273 207.285 40.992 207.172 42.195 207.172 43.883 207.172 45.852 207.457 47.207 208.027 47.949 208.598 48.692 209.351 49.063 210.289 49.063 211.32 49.063 212.07 48.676 212.539 47.902 213.008 47.129 213.242 45.789 213.242 43.883 213.242 41.617 212.965 40.106 212.41 39.348 211.855 38.59 211.109 38.211 210.172 38.211 Z M150.266 55.227 L150.266 48.008 C152.953 49.524 155.859 50.281 158.984 50.281 160.813 50.281 162.094 50.063 162.828 49.625 163.234 49.391 163.438 49.047 163.438 48.594 163.438 48.172 163.219 47.828 162.781 47.563 162.437 47.375 161.664 47.195 160.461 47.023 158.414 46.727 156.953 46.453 156.078 46.203 154.703 45.828 153.543 45.328 152.598 44.703 151.652 44.078 150.906 43.258 150.359 42.242 149.812 41.227 149.539 40.086 149.539 38.82 149.539 37.68 149.758 36.637 150.195 35.691 150.633 34.746 151.234 33.938 152 33.266 152.766 32.594 153.703 32.016 154.813 31.531 155.5 31.234 156.32 30.984 157.273 30.781 159.055 30.406 161.023 30.219 163.18 30.219 166.227 30.219 169.367 30.57 172.602 31.273 L172.602 38.164 C171.695 37.742 170.496 37.387 169.004 37.098 167.512 36.809 166.148 36.664 164.914 36.664 163.305 36.664 162.141 36.883 161.422 37.32 161.016 37.57 160.813 37.898 160.813 38.305 160.813 38.695 161.031 39 161.469 39.219 161.781 39.375 162.851 39.582 164.68 39.84 166.508 40.098 167.82 40.336 168.617 40.555 169.742 40.867 170.621 41.215 171.254 41.598 171.887 41.981 172.453 42.445 172.953 42.992 173.453 43.539 173.851 44.184 174.148 44.926 174.445 45.668 174.594 46.523 174.594 47.492 174.594 48.68 174.379 49.738 173.949 50.668 173.519 51.598 173 52.375 172.391 53 171.922 53.469 171.297 53.922 170.516 54.359 169.437 54.984 168.227 55.469 166.883 55.813 164.726 56.359 162.477 56.633 160.133 56.633 156.945 56.633 153.656 56.164 150.266 55.227 Z M146.258 28.156 L134.141 28.156 134.141 19.789 146.258 19.789 Z M134.141 56 L134.141 30.945 146.258 30.945 146.258 56 Z M101.023 30.945 L112.367 30.945 112.367 35.117 C113.898 31.898 116.719 30.289 120.828 30.289 122.234 30.289 123.531 30.492 124.719 30.898 125.906 31.305 126.914 31.922 127.742 32.75 128.258 33.281 128.672 33.953 128.984 34.766 129.422 35.906 129.641 37.078 129.641 38.281 L129.641 56 117.523 56 117.523 41.164 C117.523 40.336 117.457 39.723 117.324 39.324 117.191 38.926 116.938 38.606 116.563 38.363 116.187 38.121 115.773 38 115.32 38 114.633 38 114.078 38.234 113.656 38.703 113.234 39.172 113.023 39.938 113.023 41 L113.023 56 101.023 56 Z M63.031 22.156 L75.922 22.156 75.922 43.227 C75.922 44.399 76.023 45.273 76.227 45.852 76.492 46.617 76.949 47.223 77.598 47.668 78.246 48.113 79.055 48.336 80.023 48.336 81.273 48.336 82.262 47.945 82.988 47.164 83.715 46.383 84.078 45.141 84.078 43.438 L84.078 22.156 96.477 22.156 96.477 42.383 C96.477 45.102 96.141 47.328 95.469 49.063 94.781 50.813 93.711 52.309 92.258 53.551 90.805 54.793 88.992 55.688 86.82 56.234 84.648 56.781 82.375 57.055 80 57.055 77.281 57.055 74.852 56.774 72.711 56.211 71.289 55.836 69.93 55.231 68.633 54.395 67.336 53.559 66.32 52.68 65.586 51.758 64.851 50.836 64.242 49.656 63.758 48.219 63.273 46.781 63.031 44.891 63.031 42.547 Z M27.172 36.383 L22.016 36.383 20.586 22.859 20.586 21.664 28.602 21.664 28.602 22.859 Z M37.18 36.383 L32.023 36.383 30.594 22.859 30.594 21.664 38.609 21.664 38.609 22.859 Z"/>
 </defs>
 <use id="&quot;-Unis-pour-Preuilly-&quot;-1" xlink:href="#&quot;-Unis-pour-Preuilly-&quot;" fill="#00a6e0" fill-opacity="1" stroke="none"/>
 <use id="&quot;-Unis-pour-Preuilly-&quot;-2" xlink:href="#&quot;-Unis-pour-Preuilly-&quot;" fill="#000000" fill-opacity="1" stroke="none"/>
 <defs>
  <path id="Tracé" d="M187 86 C187 86 210.477 72.953 287 68 386.195 61.58 406 77 406 77"/>
 </defs>
 <defs>
  <path id="stroke-path" d="M187 86 C187 86 210.477 72.953 287 68 386.195 61.58 406 77 406 77" stroke-linejoin="round"/>
 </defs>
 <use id="Tracé-1" stroke="#000000" stroke-opacity="1" stroke-linecap="round" fill="none" stroke-width="3" xlink:href="#stroke-path"/>
 <defs>
  <path id="stroke-path-1" d="M187 86 C187 86 210.477 72.953 287 68 386.195 61.58 406 77 406 77" stroke-linejoin="round"/>
 </defs>
 <use id="Tracé-2" stroke="#009fe3" stroke-opacity="1" stroke-linecap="round" fill="none" stroke-width="8" xlink:href="#stroke-path-1"/>
</svg>
