<svg id="Calque_1" data-name="Calque 1" xmlns="http://www.w3.org/2000/svg" xmlns:xlink="http://www.w3.org/1999/xlink" viewBox="0 0 385.11 40.31"><defs><style>.cls-1{fill:none;}.cls-2{clip-path:url(#clip-path);}.cls-3{fill:#009fe3;}.cls-4{fill:#009ddf;}</style><clipPath id="clip-path" transform="translate(-105 -384.58)"><rect class="cls-1" x="105" y="384.58" width="385.11" height="40.31"/></clipPath></defs><title>titre-unis</title><g class="cls-2"><path class="cls-3" d="M223.22,424.89h0s64.63-14.23,147.4-5.6l-4-3.37c-71.72-9.38-141.54,6.34-141.54,6.34Z" transform="translate(-105 -384.58)"/><path class="cls-3" d="M477.07,384.91l-1.74,8.54h4.45l3.22-8.54Zm7.11,0-1.74,8.54h4.45l3.22-8.54Zm-18.9,0h-7.76l-3.08,8.18h-.06l-3.05-8.18h-8.15l7.25,13.55v6h7.5v-6Zm-35.7,19.54h16.72v-5.77h-9.21V384.91h-7.5Zm-18.54,0h16.72v-5.77h-9.21V384.91H411Zm-10.19,0h7.5V384.91h-7.5Zm-14.7-19.54h-7.5v11.87c0,5.77,4.28,8,9.74,8,5.91,0,9.8-2.07,9.8-8.4V384.91h-7.34v11.62c0,1.9-.42,3.22-2.38,3.22-1.79,0-2.32-1.4-2.32-3.25Zm-26.77,19.54h17.14v-4.7h-9.8v-2.66h9.18v-4.7h-9.18v-2.77h9.6v-4.7H359.38ZM344.9,389.28H347c1.51,0,2.94.25,2.94,2,0,2-1.51,2.16-3.05,2.16h-2Zm-7.17,15.18h7.5v-6.64h1.68c.92,0,1.68.11,2.13,1,.62,1.18.7,4.23,1,5.63h7.81c-.78-1.9-.7-4.93-1.85-7a4.7,4.7,0,0,0-3.3-2.1v-.06c2.8-.67,4.68-2.18,4.68-5.18,0-3.75-2.88-5.21-7.56-5.21H337.73Zm-14.59-15h1.62c1.82,0,3.64.25,3.64,2.32s-1.82,2.52-3.61,2.52h-1.65Zm-7.31,15h7.5v-5.63h5.38c3.92,0,7.2-2.1,7.2-7.2,0-5.26-4.12-6.72-7.17-6.72H315.84Zm-24.95-15.18H293c1.51,0,2.94.25,2.94,2,0,2-1.51,2.16-3.05,2.16h-2Zm-7.17,15.18h7.5v-6.64h1.68c.92,0,1.68.11,2.13,1,.62,1.18.7,4.23,1,5.63h7.81c-.78-1.9-.7-4.93-1.85-7a4.7,4.7,0,0,0-3.3-2.1v-.06c2.8-.67,4.68-2.18,4.68-5.18,0-3.75-2.88-5.21-7.56-5.21H283.72ZM269.3,384.91h-7.5v11.87c0,5.77,4.28,8,9.74,8,5.91,0,9.8-2.07,9.8-8.4V384.91H274v11.62c0,1.9-.42,3.22-2.38,3.22-1.79,0-2.32-1.4-2.32-3.25Zm-23.18,9.77c0-1.82.22-5.4,3-5.4s3.05,3.58,3.08,5.4c0,2.1-.11,5.4-3.08,5.4-2.69,0-3-3.3-3-5.4m13.92,0c0-6.55-4.09-10.11-10.92-10.11s-10.84,3.56-10.84,10.11,4,10.11,10.84,10.11S260,401.35,260,394.69m-35.73-5.24h1.62c1.82,0,3.64.25,3.64,2.32s-1.82,2.52-3.61,2.52h-1.65Zm-7.31,15h7.5v-5.63h5.38c3.92,0,7.2-2.1,7.2-7.2,0-5.26-4.12-6.72-7.17-6.72H217Z" transform="translate(-105 -384.58)"/><path class="cls-4" d="M203.56,385.25a33.36,33.36,0,0,0-6.47-.67c-4.45,0-10.05,1-10.05,6.33,0,7.59,10.28,5.21,10.28,7.84,0,1-1.6,1.34-3.36,1.34a18.16,18.16,0,0,1-6.72-1.29v5.07a33.94,33.94,0,0,0,8.06.92c4.34,0,9.52-1.32,9.52-6.55,0-7.53-10.28-5.12-10.28-7.67,0-1.26,2-1.29,3.22-1.29a17.69,17.69,0,0,1,5.8,1Zm-26,19.21h7.5V384.91h-7.5Z" transform="translate(-105 -384.58)"/><path class="cls-3" d="M153.66,404.46h6.44V390.29h.06L164,404.46h11V384.91h-6.44v13.78h-.06l-3.61-13.78H153.66Zm-14.53-19.54h-7.5v11.87c0,5.77,4.28,8,9.74,8,5.91,0,9.8-2.07,9.8-8.4V384.91h-7.34v11.62c0,1.9-.42,3.22-2.38,3.22-1.79,0-2.32-1.4-2.32-3.25Zm-32.4,0L105,393.45h4.45l3.22-8.54Zm7.11,0-1.74,8.54h4.45l3.22-8.54Z" transform="translate(-105 -384.58)"/></g></svg>